<svg xmlns="http://www.w3.org/2000/svg" width="103" height="103">
    <path fill="#FC7701" fill-rule="evenodd" d="M51.5 102.1C23.599 102.1.9 79.401.9 51.5S23.599.9 51.5.9s50.6 22.699 50.6 50.6-22.699 50.6-50.6 50.6zm0-91.52c-22.563 0-40.92 18.357-40.92 40.92 0 22.563 18.357 40.92 40.92 40.92 22.563 0 40.92-18.357 40.92-40.92 0-22.563-18.357-40.92-40.92-40.92zm24.64 45.76h-19.8v19.8a4.84 4.84 0 0 1-9.68 0v-19.8h-19.8a4.84 4.84 0 0 1 0-9.68h19.8v-19.8a4.84 4.84 0 0 1 9.68 0v19.8h19.8a4.84 4.84 0 0 1 0 9.68z"/>
</svg>
