<svg xmlns="http://www.w3.org/2000/svg" width="104" height="100" viewBox="0 0 104 100">
  <metadata><?xpacket begin="﻿" id="W5M0MpCehiHzreSzNTczkc9d"?>
<x:xmpmeta xmlns:x="adobe:ns:meta/" x:xmptk="Adobe XMP Core 5.6-c142 79.160924, 2017/07/13-01:06:39        ">
   <rdf:RDF xmlns:rdf="http://www.w3.org/1999/02/22-rdf-syntax-ns#">
      <rdf:Description rdf:about=""/>
   </rdf:RDF>
</x:xmpmeta>
                                                                                                    
                                                                                                    
                                                                                                    
                                                                                                    
                                                                                                    
                                                                                                    
                                                                                                    
                                                                                                    
                                                                                                    
                                                                                                    
                                                                                                    
                                                                                                    
                                                                                                    
                                                                                                    
                                                                                                    
                                                                                                    
                                                                                                    
                                                                                                    
                                                                                                    
                                                                                                    
                           
<?xpacket end="w"?></metadata>
<defs>
    <style>
      .cls-1 {
        fill: #dc050f;
        fill-rule: evenodd;
      }
    </style>
  </defs>
  <path id="give" class="cls-1" d="M2067.42,924.009a7.712,7.712,0,0,1,1.18-10.55l9.45-8.533,5.2-7.433v-3.929a2.27,2.27,0,1,1,4.54,0v4.657a2.245,2.245,0,0,1-.42,1.323l-5.77,8.239a2.223,2.223,0,0,1-.34.385l-9.67,8.74c-0.03.025-.06,0.05-0.09,0.073a3.084,3.084,0,0,0-.49,4.223,3,3,0,0,0,4.04.68l23.89-17.241,9.43-11.935a2.256,2.256,0,0,1,1.77-.862h7.69a2.291,2.291,0,0,1,0,4.582h-6.59l-8.95,11.321a2.235,2.235,0,0,1-.45.435l-24.18,17.45-0.06.038a7.443,7.443,0,0,1-4.19,1.287A7.54,7.54,0,0,1,2067.42,924.009Zm-26.61-30.776,20.86-17.818a2.217,2.217,0,0,1,1.14-.519l34.18-4.86a2.3,2.3,0,0,1,.32-0.022h44.43a2.291,2.291,0,0,1,0,4.581h-15.03v28.167h15.03a2.291,2.291,0,0,1,0,4.582h-17.3a2.283,2.283,0,0,1-2.27-2.291V874.6h-24.7l-33.37,4.746-19.56,16.7V911.6a2.06,2.06,0,1,0,4.12,0V899.841a2.291,2.291,0,0,1,1.31-2.079l12.21-5.7a2.233,2.233,0,0,1,.95-0.212h14.93a2.291,2.291,0,0,1,0,4.582h-14.43l-1.79.835V911.6a6.627,6.627,0,0,1-6.59,6.657,6.511,6.511,0,0,0-8.65,0,6.627,6.627,0,0,1-6.59-6.657V894.982A2.3,2.3,0,0,1,2040.81,893.233Zm14.44,20.445a2.074,2.074,0,0,0,2.06-2.075V899.384l-4.12,1.921v10.3A2.074,2.074,0,0,0,2055.25,913.678Zm-0.11,30.119v-6.655a2.27,2.27,0,1,1,4.54,0V943.8A13.08,13.08,0,1,1,2055.14,943.8Zm2.27,21.619a8.625,8.625,0,1,0-8.54-8.625A8.592,8.592,0,0,0,2057.41,965.416Zm0-33.622a2.283,2.283,0,0,1-2.27-2.291v-4.366a2.27,2.27,0,1,1,4.54,0V929.5A2.283,2.283,0,0,1,2057.41,931.794Z" transform="translate(-2040 -870)"/>
</svg>
