<svg xmlns="http://www.w3.org/2000/svg" width="106.75" height="112.281" viewBox="0 0 106.75 112.281">
  <metadata><?xpacket begin="﻿" id="W5M0MpCehiHzreSzNTczkc9d"?>
<x:xmpmeta xmlns:x="adobe:ns:meta/" x:xmptk="Adobe XMP Core 5.6-c142 79.160924, 2017/07/13-01:06:39        ">
   <rdf:RDF xmlns:rdf="http://www.w3.org/1999/02/22-rdf-syntax-ns#">
      <rdf:Description rdf:about=""/>
   </rdf:RDF>
</x:xmpmeta>
                                                                                                    
                                                                                                    
                                                                                                    
                                                                                                    
                                                                                                    
                                                                                                    
                                                                                                    
                                                                                                    
                                                                                                    
                                                                                                    
                                                                                                    
                                                                                                    
                                                                                                    
                                                                                                    
                                                                                                    
                                                                                                    
                                                                                                    
                                                                                                    
                                                                                                    
                                                                                                    
                           
<?xpacket end="w"?></metadata>
<defs>
    <style>
      .cls-1 {
        fill: #008309;
        fill-rule: evenodd;
      }
    </style>
  </defs>
  <path id="take" class="cls-1" d="M2141.91,685.373a7.11,7.11,0,0,0-8.97-.883l-4.05,2.738a7.116,7.116,0,0,0-10.27-2.763l-11.22,7.27c0.03-.305.05-0.613,0.05-0.926v-3.053a2.283,2.283,0,0,0-2.28-2.288h-29.33a12.732,12.732,0,0,0-7.96,2.8l-15.59,10.28h-12.71a2.288,2.288,0,0,0,0,4.576h6.33v21.591h-6.42a2.288,2.288,0,0,0,0,4.576h8.7a2.283,2.283,0,0,0,2.28-2.288v-4.254h21.64a2.272,2.272,0,0,0,.56-0.069l44.78-11.319a2.291,2.291,0,0,0,.68-0.3l22.68-14.727A7.135,7.135,0,0,0,2141.91,685.373Zm-20.78,2.918a2.516,2.516,0,0,1,3.87,1.562l-8.35,5.646H2110Zm17.18,4.221-22.35,14.508-44.13,11.157h-21.36V703.128h2.51a2.277,2.277,0,0,0,1.25-.376l16.25-10.718a1.733,1.733,0,0,0,.19-0.141,8.188,8.188,0,0,1,5.17-1.849h27.05v0.765a4.691,4.691,0,0,1-4.68,4.69h-12.18a2.288,2.288,0,0,0,0,4.576h31.32a2.253,2.253,0,0,0,1.27-.391l16.86-11.393A2.541,2.541,0,0,1,2138.31,692.512Zm-14-26.455a11.011,11.011,0,1,0-10.98-11.01A11.01,11.01,0,0,0,2124.31,666.057Zm0-17.445a6.435,6.435,0,1,1-6.42,6.435A6.433,6.433,0,0,1,2124.31,648.612Zm0-7.794a2.283,2.283,0,0,0,2.28-2.288v-7.9a2.285,2.285,0,1,0-4.57,0v7.9A2.292,2.292,0,0,0,2124.31,640.818Zm0-14.881a2.283,2.283,0,0,0,2.28-2.288v-4.361a2.285,2.285,0,1,0-4.57,0v4.361A2.292,2.292,0,0,0,2124.31,625.937Zm-28.27,55.384a8.83,8.83,0,1,0-8.81-8.829A8.826,8.826,0,0,0,2096.04,681.321Zm0-13.083a4.254,4.254,0,1,1-4.25,4.254A4.257,4.257,0,0,1,2096.04,668.238Zm0-7.794a2.283,2.283,0,0,0,2.28-2.288v-7.9a2.285,2.285,0,1,0-4.57,0v7.9A2.292,2.292,0,0,0,2096.04,660.444Zm0-14.881a2.284,2.284,0,0,0,2.28-2.288v-4.362a2.285,2.285,0,1,0-4.57,0v4.362A2.292,2.292,0,0,0,2096.04,645.563Zm-21.75-3.493a2.283,2.283,0,0,0,2.28-2.288v-4.361a2.28,2.28,0,1,0-4.56,0v4.361A2.283,2.283,0,0,0,2074.29,642.07Zm-8.7,4.361h4.35a2.288,2.288,0,0,0,0-4.576h-4.35A2.288,2.288,0,0,0,2065.59,646.431Zm13.05,0h4.35a2.288,2.288,0,0,0,0-4.576h-4.35A2.288,2.288,0,0,0,2078.64,646.431Zm-4.35-.214a2.283,2.283,0,0,0-2.28,2.288v4.361a2.28,2.28,0,1,0,4.56,0v-4.361A2.283,2.283,0,0,0,2074.29,646.217Z" transform="translate(-2037.22 -617)"/>
</svg>
