<svg id="title" xmlns="http://www.w3.org/2000/svg" width="667.219" height="202.313" viewBox="0 0 667.219 202.313">
  <metadata><?xpacket begin="﻿" id="W5M0MpCehiHzreSzNTczkc9d"?>
<x:xmpmeta xmlns:x="adobe:ns:meta/" x:xmptk="Adobe XMP Core 5.6-c142 79.160924, 2017/07/13-01:06:39        ">
   <rdf:RDF xmlns:rdf="http://www.w3.org/1999/02/22-rdf-syntax-ns#">
      <rdf:Description rdf:about=""/>
   </rdf:RDF>
</x:xmpmeta>
                                                                                                    
                                                                                                    
                                                                                                    
                                                                                                    
                                                                                                    
                                                                                                    
                                                                                                    
                                                                                                    
                                                                                                    
                                                                                                    
                                                                                                    
                                                                                                    
                                                                                                    
                                                                                                    
                                                                                                    
                                                                                                    
                                                                                                    
                                                                                                    
                                                                                                    
                                                                                                    
                           
<?xpacket end="w"?></metadata>
<defs>
    <style>
      .cls-1 {
        fill: #ffa200;
      }

      .cls-1, .cls-2 {
        fill-rule: evenodd;
      }

      .cls-2 {
        fill: #290264;
      }
    </style>
  </defs>
  <path class="cls-1" d="M821.867,209.2H799.2a2.271,2.271,0,0,1-2.267-2.275v-13.65A2.271,2.271,0,0,1,799.2,191h22.667a2.271,2.271,0,0,1,2.266,2.275v13.65A2.271,2.271,0,0,1,821.867,209.2Zm-31.734,22.75H767.467a2.271,2.271,0,0,1-2.267-2.275v-13.65a2.271,2.271,0,0,1,2.267-2.275h22.666a2.271,2.271,0,0,1,2.267,2.275v13.65A2.271,2.271,0,0,1,790.133,231.95Z" transform="translate(-206.781 -97.031)"/>
  <path class="cls-2" d="M867.2,272.9H753.867a6.82,6.82,0,0,1-6.8-6.825V106.825a6.82,6.82,0,0,1,6.8-6.825H867.2a6.82,6.82,0,0,1,6.8,6.825v159.25A6.82,6.82,0,0,1,867.2,272.9ZM753.867,104.55a2.273,2.273,0,0,0-2.267,2.275v159.25a2.273,2.273,0,0,0,2.267,2.275H867.2a2.274,2.274,0,0,0,2.267-2.275V106.825a2.274,2.274,0,0,0-2.267-2.275H753.867ZM862.667,282H749.333A11.367,11.367,0,0,1,738,270.625V120.475a2.267,2.267,0,1,1,4.533,0v150.15a6.82,6.82,0,0,0,6.8,6.825H862.667A2.275,2.275,0,0,1,862.667,282ZM853.6,159.15H767.467a2.271,2.271,0,0,1-2.267-2.275v-36.4a2.271,2.271,0,0,1,2.267-2.275H853.6a2.275,2.275,0,0,1,0,4.55H769.733V154.6h81.6V138.675a2.267,2.267,0,1,1,4.534,0v18.2A2.271,2.271,0,0,1,853.6,159.15Zm-31.733,18.2h-54.4a2.275,2.275,0,0,1,0-4.55h54.4A2.275,2.275,0,0,1,821.867,177.35Zm22.666,0h-13.6a2.275,2.275,0,0,1,0-4.55h13.6A2.275,2.275,0,0,1,844.533,177.35Zm0,54.6H840a2.275,2.275,0,0,1,0-4.55h4.533A2.275,2.275,0,0,1,844.533,231.95Zm0,9.1H840a2.275,2.275,0,0,1,0-4.55h4.533A2.275,2.275,0,0,1,844.533,241.05ZM853.6,209.2H830.933a2.271,2.271,0,0,1-2.266-2.275v-13.65A2.271,2.271,0,0,1,830.933,191H853.6a2.271,2.271,0,0,1,2.267,2.275v13.65A2.271,2.271,0,0,1,853.6,209.2Zm-20.4-4.55h18.133v-9.1H833.2v9.1Zm-11.333,4.55H799.2a2.271,2.271,0,0,1-2.267-2.275v-13.65A2.271,2.271,0,0,1,799.2,191h22.667a2.271,2.271,0,0,1,2.266,2.275v13.65A2.271,2.271,0,0,1,821.867,209.2Zm-20.4-4.55H819.6v-9.1H801.467v9.1Zm-11.334,4.55H767.467a2.271,2.271,0,0,1-2.267-2.275v-13.65A2.271,2.271,0,0,1,767.467,191h22.666a2.271,2.271,0,0,1,2.267,2.275v13.65A2.271,2.271,0,0,1,790.133,209.2Zm-20.4-4.55h18.134v-9.1H769.733v9.1ZM853.6,254.7H830.933a2.271,2.271,0,0,1-2.266-2.275v-36.4a2.271,2.271,0,0,1,2.266-2.275H853.6a2.271,2.271,0,0,1,2.267,2.275v36.4A2.271,2.271,0,0,1,853.6,254.7Zm-20.4-4.55h18.133V218.3H833.2v31.85Zm-11.333-18.2H799.2a2.271,2.271,0,0,1-2.267-2.275v-13.65a2.271,2.271,0,0,1,2.267-2.275h22.667a2.271,2.271,0,0,1,2.266,2.275v13.65A2.271,2.271,0,0,1,821.867,231.95Zm-20.4-4.55H819.6v-9.1H801.467v9.1Zm-11.334,4.55H767.467a2.271,2.271,0,0,1-2.267-2.275v-13.65a2.271,2.271,0,0,1,2.267-2.275h22.666a2.271,2.271,0,0,1,2.267,2.275v13.65A2.271,2.271,0,0,1,790.133,231.95Zm-20.4-4.55h18.134v-9.1H769.733v9.1Zm52.134,27.3H799.2a2.271,2.271,0,0,1-2.267-2.275v-13.65A2.271,2.271,0,0,1,799.2,236.5h22.667a2.271,2.271,0,0,1,2.266,2.275v13.65A2.271,2.271,0,0,1,821.867,254.7Zm-20.4-4.55H819.6v-9.1H801.467v9.1Zm-11.334,4.55H767.467a2.271,2.271,0,0,1-2.267-2.275v-13.65a2.271,2.271,0,0,1,2.267-2.275h22.666a2.271,2.271,0,0,1,2.267,2.275v13.65A2.271,2.271,0,0,1,790.133,254.7Zm-20.4-4.55h18.134v-9.1H769.733v9.1Zm38.534-100.1A2.271,2.271,0,0,1,806,147.775v-18.2a2.267,2.267,0,1,1,4.533,0v18.2A2.271,2.271,0,0,1,808.267,150.05Zm31.733,0a6.82,6.82,0,0,1-6.8-6.825v-9.1a6.8,6.8,0,1,1,13.6,0v9.1A6.82,6.82,0,0,1,840,150.05Zm0-18.2a2.273,2.273,0,0,0-2.267,2.275v9.1a2.267,2.267,0,1,0,4.534,0v-9.1A2.274,2.274,0,0,0,840,131.85Zm-13.6,18.2h-4.533a6.825,6.825,0,0,1,0-13.65,2.275,2.275,0,0,0,0-4.55h-4.534a2.275,2.275,0,0,1,0-4.55h4.534a6.825,6.825,0,0,1,0,13.65,2.275,2.275,0,0,0,0,4.55H826.4A2.275,2.275,0,0,1,826.4,150.05Zm29.467,25.025A2.267,2.267,0,1,1,853.6,172.8,2.271,2.271,0,0,1,855.867,175.075Zm0-45.5A2.267,2.267,0,1,1,853.6,127.3,2.271,2.271,0,0,1,855.867,129.575Zm-113.334-18.2a2.267,2.267,0,1,1-2.266-2.275A2.27,2.27,0,0,1,742.533,111.375Z" transform="translate(-206.781 -97.031)"/>
  <path id="מחשבון_חלוקת_הוצאות" data-name="מחשבון חלוקת הוצאות" class="cls-2" d="M217.254,222.562h24.375V99.392H209.18v19.2h8.074V222.562Zm49.969-31.687h24.832V99.392h-32.6v19.2h7.77v72.287Zm109.459-20.034V132.755q0-10.51-4.38-18.014a28.274,28.274,0,0,0-12.644-11.426q-8.267-3.922-19.843-3.923H313.231v19.2h24.756q13.861,0,13.863,13.025V171.6H308.28v19.272h78.99v-18.51ZM425.66,99.392H401.742v82.266a125.945,125.945,0,0,0,52.711,12.035,83.8,83.8,0,0,0,29.822-5.027,46.957,46.957,0,0,0,21.1-15.12q7.808-10.093,7.808-24.642V99.392H489.188v46.694q0,14.32-9.636,21.328t-26.165,7.008a63.765,63.765,0,0,1-13.825-1.676,78.857,78.857,0,0,1-13.9-4.418V99.392Zm16.53,62H462.3a28.158,28.158,0,0,0,4.875-10.55A56.114,56.114,0,0,0,469,136.259V99.392H445.008v42.123a83.845,83.845,0,0,1-.762,11.655,30.919,30.919,0,0,1-2.056,8.226h0Zm95.672,29.479h24.755V118.588h15.616q11.577,0,11.578,13.33l0.152,58.957h24.68V134.05q-0.077-17.138-9.293-25.9t-27.117-8.76H537.938Zm98.566,0h24.451l5.332-54.159q1.9-19.5,14.321-19.5a11.449,11.449,0,0,1,9.9,4.914q3.5,4.913,3.5,13.825l0.076,35.724H678.551v19.2h40.295V139.306q-0.077-20.87-11.007-31.573t-32.03-10.7a137.809,137.809,0,0,0-22.623,1.98,111.868,111.868,0,0,0-20.643,5.256l5.18,17.9a66.111,66.111,0,0,1,6.894-2.286q4.074-1.142,7.045-1.675l0.077,0.381a5.567,5.567,0,0,0-1.067.914,27.587,27.587,0,0,0-5.446,8.8,42.82,42.82,0,0,0-3.009,11.693ZM234.717,229.021H211.656v4.487h10.575a17.722,17.722,0,0,0-3.266,6.732,32.646,32.646,0,0,0-1.222,8.909v18.307q0,4.755-1.8,6.909t-6.02,2.155a27.188,27.188,0,0,1-3.155-.222v4.488a29.688,29.688,0,0,0,4.31.355q11.952,0,11.953-13.463v-18.8a34.383,34.383,0,0,1,1.11-8.82,18.4,18.4,0,0,1,2.933-6.554h7.731a19.788,19.788,0,0,1,8.554,1.578,9.759,9.759,0,0,1,4.777,4.932,21.727,21.727,0,0,1,1.51,8.82l0.045,32.037h5.376v-31.9q0-10.175-5-15.063t-15.351-4.887h0Zm38.968,51.854h5.421V229.021H266.887v4.487h6.8v47.367Zm65.362-51.854H332.87l-14.4,24.127-17.907-24.127H294.48l11.153,15.018a14.847,14.847,0,0,0-7.088,6.443,22.229,22.229,0,0,0-2.332,10.753v19.64H301.5V259.769q0-9.286,6.4-12.664l25.016,33.77H339l-17.151-23.15Zm49.143,0h-6.132l-13.374,22.705-15.419-22.705h-6.176l32.57,47.321H349.622v4.533h37.057v-3.111l-14.8-21.372Zm14.663,51.854h5.421V229.021H396.055v4.487h6.8v47.367Zm53.321,0h5.376V248.794q0-10-5.043-14.886t-15.352-4.887h-17.6v4.487h17.463a20.711,20.711,0,0,1,8.731,1.556,9.822,9.822,0,0,1,4.865,4.91,21.149,21.149,0,0,1,1.556,8.82v32.081Zm-32.437,0h5.288V263.19a54.9,54.9,0,0,1,.289-6.176,29.172,29.172,0,0,1,.91-4.666H425.6a26.824,26.824,0,0,0-1.866,10.842v17.685Zm95.443-51.854H496.119v4.487H506.7a17.722,17.722,0,0,0-3.266,6.732,32.646,32.646,0,0,0-1.222,8.909v18.307q0,4.755-1.8,6.909t-6.02,2.155a27.188,27.188,0,0,1-3.155-.222v4.488a29.688,29.688,0,0,0,4.31.355q11.952,0,11.952-13.463v-18.8a34.339,34.339,0,0,1,1.111-8.82,18.384,18.384,0,0,1,2.933-6.554h7.731a19.788,19.788,0,0,1,8.554,1.578,9.753,9.753,0,0,1,4.776,4.932,21.708,21.708,0,0,1,1.511,8.82l0.045,32.037h5.376v-31.9q0-10.175-5-15.063t-15.352-4.887h0Zm52.565,51.854a26.516,26.516,0,0,0,11.242-2.555,17.219,17.219,0,0,0,7.309-6.688,19.674,19.674,0,0,0,2.555-10.219V229.021H554.683v4.487H587.43V261.5a14.777,14.777,0,0,1-1.955,7.664,13.723,13.723,0,0,1-5.509,5.2,18.4,18.4,0,0,1-8.221,2.022v4.488Zm-16,18.484h5.288V260.746a58.675,58.675,0,0,1,.267-6.176,23.972,23.972,0,0,1,.933-4.577h-4.621a31.609,31.609,0,0,0-1.4,4.777,30.971,30.971,0,0,0-.467,5.976v38.613Zm56.564-18.484h5.421V229.021H605.515v4.487h6.8v47.367ZM667.9,229.021H635.419v-16.4H630v20.883h31.814l-19.728,47.367h5.909L667.9,232.353v-3.332Zm12.175,51.854h5.376l0.044-47.367h12.664a19.783,19.783,0,0,1,8.553,1.578,9.852,9.852,0,0,1,4.8,4.932,21.427,21.427,0,0,1,1.533,8.82v32.037h5.377v-31.9q0-10.175-5-15.063t-15.352-4.887H680.119Z" transform="translate(-206.781 -97.031)"/>
</svg>
