<svg xmlns="http://www.w3.org/2000/svg" width="38" height="38">
    <path fill="#690196" fill-rule="evenodd" d="M24.664 18.761L36.285 7.24a3.96 3.96 0 0 0 0-5.633 4.043 4.043 0 0 0-5.682 0L18.982 13.128 7.361 1.607a4.043 4.043 0 0 0-5.682 0 3.959 3.959 0 0 0 0 5.633L13.3 18.761 1.679 30.283a3.958 3.958 0 0 0 0 5.632 4.024 4.024 0 0 0 2.841 1.167 4.024 4.024 0 0 0 2.841-1.167l11.621-11.521 11.621 11.521a4.022 4.022 0 0 0 2.841 1.167 4.024 4.024 0 0 0 2.841-1.167 3.96 3.96 0 0 0 0-5.632L24.664 18.761z"/>
</svg>
